<?xml version="1.0" encoding="utf-8"?>
<!-- Generator: Adobe Illustrator 21.1.0, SVG Export Plug-In . SVG Version: 6.00 Build 0)  -->
<svg version="1.1" id="Warstwa_1" xmlns="http://www.w3.org/2000/svg" xmlns:xlink="http://www.w3.org/1999/xlink" x="0px" y="0px"
	 viewBox="0 0 78.2 34.8" style="enable-background:new 0 0 78.2 34.8;" xml:space="preserve">
<title>epicup</title>
<g id="Warstwa_2">
	<g id="Warstwa_1-2">
		<path style="fill:#FCB433;" d="M7.4,30.5c-3.4,0-5.5-1-6.5-3.1c-0.7-1.7-1-3.4-0.9-5.2v-9c0-4.9,2.5-7.4,7.6-7.4
			c2.7,0,4.6,0.7,5.6,2c1.1,1.6,1.7,3.6,1.6,5.6v5.2H5.3v4.8c-0.1,1.1,0.1,2.2,0.5,3.2c0.4,0.5,1,0.7,1.6,0.7c0.7,0,1.2-0.1,1.4-0.4
			c0.4-0.4,0.6-0.9,0.6-1.5c0.1-0.7,0.1-1.3,0.1-2v-2.1h5.2v1.3c0.1,1.6-0.1,3.2-0.6,4.7c-0.3,0.8-0.8,1.6-1.5,2.1
			C11,30.2,9.2,30.6,7.4,30.5z M5.3,15.9h4.3v-3.1c0.1-1-0.1-1.9-0.4-2.8C8.9,9.4,8.3,9,7.6,9.1l0,0c-1.4,0-2.1,0.9-2.2,2.6
			L5.3,15.9L5.3,15.9z"/>
		<path style="fill:#FCB433;" d="M16.2,34.8V6h5.3v2.2c0.4-0.8,1-1.4,1.8-1.8c0.8-0.4,1.6-0.6,2.5-0.6c0.8,0,1.6,0.1,2.3,0.4
			c1.2,0.4,2.1,1.4,2.5,2.6c0.4,1.5,0.6,3,0.6,4.6v8.8c0,2.8-0.3,4.8-1,5.9c-0.6,1-1.6,1.8-2.7,2.2c-0.7,0.2-1.5,0.3-2.2,0.3
			c-0.8,0-1.5-0.2-2.2-0.5c-0.6-0.3-1.2-0.7-1.6-1.3v6L16.2,34.8z M22,26.1c0.4,0.6,1.1,1,1.8,0.9c0.8,0.1,1.5-0.3,1.8-1
			c0.3-1,0.5-2.1,0.4-3.1v-10c0-1.9-0.3-3.1-1-3.5c-0.3-0.2-0.7-0.3-1.1-0.3c-0.7,0-1.4,0.3-1.8,0.8c-0.5,0.9-0.7,1.9-0.6,2.9V23
			C21.5,24.1,21.6,25.1,22,26.1z"/>
		<path style="fill:#FCB433;" d="M32.9,3.7V0h5.3v3.7H32.9z M33,30.2V6h5.3v24.2H33z"/>
		<path style="fill:#FCB433;" d="M47.5,30.5c-3,0-5-0.7-6.1-2.1s-1.6-3.5-1.6-6.2v-7.8c0-3.5,0.8-5.9,2.3-7.1c1.2-1,3-1.5,5.5-1.5
			s4.2,0.6,5.3,1.8c1.2,1.5,1.7,3.3,1.6,5.2v2.7h-5.1v-2.8c0.1-1-0.1-1.9-0.5-2.8c-0.4-0.4-1-0.6-1.6-0.6c-0.6,0-1.2,0.3-1.6,0.8
			c-0.4,0.8-0.5,1.7-0.5,2.6v10.9c-0.1,0.9,0.1,1.8,0.4,2.6c0.4,0.6,1,0.9,1.7,0.8c1,0.1,1.9-0.7,2-1.8c0-0.1,0-0.2,0-0.2
			c0-0.3,0.1-0.7,0.1-1.1v-3.2h5.1v2.5c0.1,2-0.4,3.9-1.6,5.5C51.4,30,49.5,30.6,47.5,30.5z"/>
		<path d="M63.4,0.3h3.2v16.4h-3.2V15c-0.3,0.6-0.7,1.1-1.3,1.4c-0.7,0.4-1.6,0.6-2.4,0.5c-0.9,0-1.9-0.3-2.6-0.9
			c-0.8-0.7-1.2-1.7-1.1-2.7v-13h3.2V13c0,1.3,0.7,1.9,2,1.9c0.6,0,1.2-0.2,1.7-0.5c0.4-0.4,0.6-0.9,0.6-1.4L63.4,0.3L63.4,0.3z"/>
		<path d="M71,1.7c0.3-0.5,0.7-0.9,1.3-1.1c0.6-0.3,1.2-0.4,1.9-0.4c1.8,0,3,0.7,3.5,2c0.4,1,0.5,2.1,0.5,3.2v5.9
			c0,2.2-0.4,3.6-1.2,4.4c-0.9,0.8-2.1,1.2-3.3,1.1c-0.6,0-1.1-0.1-1.6-0.4c-0.4-0.2-0.8-0.5-1.1-0.9v4.1h-3.2V0.3H71V1.7z M75,5
			V4.2c0-0.4,0-0.8-0.2-1.2c-0.1-0.2-0.2-0.4-0.4-0.6C74.1,2.1,73.6,2,73.2,2c-0.4,0-0.8,0.1-1.2,0.2c-0.7,0.3-1,1.3-1,2.9v6.7
			c-0.1,0.9,0.1,1.7,0.4,2.5c0.7,0.9,1.9,1.1,2.8,0.4c0.2-0.1,0.3-0.2,0.4-0.4c0.3-0.8,0.5-1.7,0.4-2.6V5z"/>
	</g>
</g>
</svg>
