<svg xmlns="http://www.w3.org/2000/svg" viewBox="0 0 1036.05 527.2" fill="#182f57"><title>jtb</title><g data-name="Warstwa 2"><g data-name="Layer 1"><path d="M0,524.66a2.54,2.54,0,0,0,2.54,2.54H58.1c69.45,0,98.52-48.74,98.52-96.63V159.31a2.54,2.54,0,0,0-2.54-2.54H74.87a2.54,2.54,0,0,0-2.54,2.54v266c0,20.08-8.37,30.54-29.91,30.54H3a3,3,0,0,0-3,3Z"></path><path d="M301.76,223.91H359a2.54,2.54,0,0,0,2.54-2.54V159.31a2.54,2.54,0,0,0-2.54-2.54h-58.8a2.54,2.54,0,0,1-2.54-2.54V95.71a2.54,2.54,0,0,0-3.86-2.17l-77.66,47.24a2.54,2.54,0,0,0-1.22,2.17V350.67h.21c.83,39.95,22.17,79.9,70.28,91a94.59,94.59,0,0,0,13.8,2.3,103.55,103.55,0,0,0,14.22.84H359a2.54,2.54,0,0,0,2.54-2.54V376.39a3,3,0,0,0-3-3l-29.46,0c-21.54,0-29.91-10.45-29.91-30.53V226.45A2.54,2.54,0,0,1,301.76,223.91Z"></path><rect x="787.11" y="371.16" width="248.93" height="73.63" rx="2.55" ry="2.55" transform="translate(1823.16 815.95) rotate(180)"></rect><rect x="72.54" y="51.96" width="84.08" height="61.04" rx="2.54" ry="2.54"></rect><path d="M732,231.42a159.45,159.45,0,0,0-31.51-50.63,145.94,145.94,0,0,0-47.52-34.09,142.08,142.08,0,0,0-59.15-12.4c-35,0-63.55,9.6-86.16,29a2.55,2.55,0,0,1-4.23-1.92V2.55A2.56,2.56,0,0,0,500.82,0H421.73a2.55,2.55,0,0,0-2.55,2.55V442.72a2.55,2.55,0,0,0,2.55,2.55h67.89a2.55,2.55,0,0,0,2.31-1.48l9.91-21.3a2.54,2.54,0,0,1,4.07-.76q13.59,13,36.21,21.47a139.87,139.87,0,0,0,51.65,9.56c21.18,0,40.81-4.13,59.15-12.66A145.8,145.8,0,0,0,700.44,406,156.57,156.57,0,0,0,732,355.39c7.49-19.37,11.11-40,11.11-62S739.44,250.79,732,231.42Zm-76.7,95a82.47,82.47,0,0,1-17,26.6,83.45,83.45,0,0,1-25.31,17.83,69.53,69.53,0,0,1-30.74,6.71c-11.1,0-21.43-1.55-31-5.16a67.91,67.91,0,0,1-24.79-15.24,65.85,65.85,0,0,1-16.79-25.57c-4.14-10.33-6.2-22.73-6.2-36.94,0-16,2.06-29.18,6.2-40a64,64,0,0,1,16.79-26.08,63.39,63.39,0,0,1,24.79-14.73,99.92,99.92,0,0,1,31-4.65,73.16,73.16,0,0,1,30.74,6.72A88.81,88.81,0,0,1,638.2,234a78.36,78.36,0,0,1,17,26.86,90,90,0,0,1,0,65.6Z"></path></g></g></svg>