<svg xmlns="http://www.w3.org/2000/svg" xmlns:xlink="http://www.w3.org/1999/xlink" width="19" height="19" viewBox="0 0 19 19"><defs><path id="u67wa" d="M76.57 671.751v-5.86c0-1.396-.028-3.187-1.944-3.187-1.944 0-2.241 1.517-2.241 3.087v5.96h-3.736v-12.038h3.587v1.642h.052c.499-.946 1.719-1.944 3.538-1.944 3.783 0 4.48 2.492 4.48 5.728v6.612zm-12.135-13.68c-1.195 0-2.165-.99-2.165-2.186a2.166 2.166 0 0 1 4.33 0c0 1.196-.97 2.186-2.165 2.186zm1.872 13.68h-3.74v-12.038h3.74z"/></defs><g><g transform="translate(-62 -653)"><use fill="#fff" xlink:href="#u67wa"/></g></g></svg>