<svg xmlns="http://www.w3.org/2000/svg" xmlns:xlink="http://www.w3.org/1999/xlink" width="17" height="24" viewBox="0 0 17 24"><defs><path id="yoo0a" d="M411 1999v-16h15v16zm7.68-1.13c3.369 0 6.1-3.087 6.1-6.895 0-3.808-2.731-6.895-6.1-6.895-3.369 0-6.1 3.087-6.1 6.895 0 3.808 2.731 6.895 6.1 6.895z"/><path id="yoo0b" d="M410.84 2001.5a4.74 4.74 0 0 1 4.74-4.74h6.2a4.74 4.74 0 0 1 4.74 4.74v1.24a3.5 3.5 0 0 1-3.5 3.5h-8.68a3.5 3.5 0 0 1-3.5-3.5z"/><path id="yoo0c" d="M412.58 1990.975c0-3.808 2.731-6.895 6.1-6.895 3.369 0 6.1 3.087 6.1 6.895 0 3.808-2.731 6.895-6.1 6.895-3.369 0-6.1-3.087-6.1-6.895z"/><clipPath id="yoo0d"><use fill="#fff" xlink:href="#yoo0a"/></clipPath></defs><g><g transform="translate(-410 -1983)"><use fill="#4190e9" xlink:href="#yoo0b"/></g><g transform="translate(-410 -1983)"><use fill="#4a90e2" xlink:href="#yoo0c"/><use fill="#fff" fill-opacity="0" stroke="#fff" stroke-miterlimit="50" stroke-width="2" clip-path="url(&quot;#yoo0d&quot;)" xlink:href="#yoo0c"/></g></g></svg>